HIERARCHY
ROOT root
{
	OFFSET 0.000000 0.000000 0.000000
	CHANNELS 6 Xposition Yposition Zposition Zrotation Yrotation Xrotation
	JOINT lhip
	{
		OFFSET 0.058581 -0.082280 -0.017664
		CHANNELS 3 Zrotation Yrotation Xrotation
		JOINT lknee
		{
			OFFSET 0.043451 -0.386469 0.008037
			CHANNELS 3 Zrotation Yrotation Xrotation
			JOINT lankle
			{
				OFFSET -0.014790 -0.426874 -0.037428
				CHANNELS 3 Zrotation Yrotation Xrotation
				JOINT ltoe
				{
					OFFSET 0.041054 -0.060286 0.122042
					CHANNELS 3 Zrotation Yrotation Xrotation
					End Site
					{
						OFFSET 0.000000 0.000000 0.000000
					}
				}
			}
		}
	}
	JOINT rhip
	{
		OFFSET -0.060310 -0.090513 -0.013543
		CHANNELS 3 Zrotation Yrotation Xrotation
		JOINT rknee
		{
			OFFSET -0.043257 -0.383688 -0.004843
			CHANNELS 3 Zrotation Yrotation Xrotation
			JOINT rankle
			{
				OFFSET 0.019056 -0.420046 -0.034562
				CHANNELS 3 Zrotation Yrotation Xrotation
				JOINT rtoe
				{
					OFFSET -0.034840 -0.062106 0.130323
					CHANNELS 3 Zrotation Yrotation Xrotation
					End Site
					{
						OFFSET 0.000000 0.000000 0.000000
					}
				}
			}
		}
	}
	JOINT lowerback
	{
		OFFSET 0.004439 0.124404 -0.038385
		CHANNELS 3 Zrotation Yrotation Xrotation
		JOINT upperback
		{
			OFFSET 0.004488 0.137956 0.026820
			CHANNELS 3 Zrotation Yrotation Xrotation
			JOINT chest
			{
				OFFSET -0.002265 0.056032 0.002855
				CHANNELS 3 Zrotation Yrotation Xrotation
				JOINT lowerneck
				{
					OFFSET -0.013390 0.211636 -0.033468
					CHANNELS 3 Zrotation Yrotation Xrotation
					JOINT upperneck
					{
						OFFSET 0.010113 0.088937 0.050410
						CHANNELS 3 Zrotation Yrotation Xrotation
						End Site
						{
							OFFSET 0.000000 0.000000 0.000000
						}
					}
				}
				JOINT lclavicle
				{
					OFFSET 0.071702 0.114000 -0.018898
					CHANNELS 3 Zrotation Yrotation Xrotation
					JOINT lshoulder
					{
						OFFSET 0.122921 0.045205 -0.019046
						CHANNELS 3 Zrotation Yrotation Xrotation
						JOINT lelbow
						{
							OFFSET 0.255332 -0.015649 -0.022946
							CHANNELS 3 Zrotation Yrotation Xrotation
							JOINT lwrist
							{
								OFFSET 0.265709 0.012698 -0.007375
								CHANNELS 3 Zrotation Yrotation Xrotation
								End Site
								{
									OFFSET 0.000000 0.000000 0.000000
								}
							}
						}
					}
				}
				JOINT rclavicle
				{
					OFFSET -0.082954 0.112472 -0.023707
					CHANNELS 3 Zrotation Yrotation Xrotation
					JOINT rshoulder
					{
						OFFSET -0.113228 0.046853 -0.008472
						CHANNELS 3 Zrotation Yrotation Xrotation
						JOINT relbow
						{
							OFFSET -0.260127 -0.014369 -0.031269
							CHANNELS 3 Zrotation Yrotation Xrotation
							JOINT rwrist
							{
								OFFSET -0.269108 0.006794 -0.006027
								CHANNELS 3 Zrotation Yrotation Xrotation
								End Site
								{
									OFFSET 0.000000 0.000000 0.000000
								}
							}
						}
					}
				}
			}
		}
	}
}
MOTION
Frames: 5
Frame Time: 0.033333
-1.231794 0.239401 0.992736 90.721275 -8.524775 87.759541 -1.880444 2.677696 -6.955787 -7.330454 -4.533310 27.811870 1.573110 18.966025 -15.781153 0.000000 -0.000000 0.000000 -10.544872 -4.432162 -9.733578 4.401802 8.086437 19.061339 2.511929 -8.400977 -13.569308 0.000000 -0.000000 0.000000 10.904383 2.591568 14.696859 9.294338 -0.371672 3.769687 3.089435 1.902132 1.000623 -5.721753 -9.670980 13.048159 -8.749503 -12.112053 -3.587563 -11.213439 12.870460 -3.351102 -19.100234 -10.321956 -11.567055 21.194553 -22.311130 -20.699254 5.503922 -3.314192 13.137963 17.650800 -5.738237 -6.837268 27.330130 2.584513 -8.131971 -19.892819 17.696812 -18.892997 -17.948095 3.141024 14.381615 
-1.220323 0.236675 0.992227 90.414644 -8.404298 87.522355 -1.720280 3.060346 -8.262196 -6.533986 -4.587594 25.143111 2.125735 18.809090 -15.818091 0.000000 -0.000000 0.000000 -9.613388 -3.743564 -9.547598 3.888474 8.423850 20.439663 2.416433 -9.800267 -14.459161 0.000000 -0.000000 0.000000 10.107435 2.328885 15.026090 8.664991 -0.549463 3.626634 2.893127 1.765324 1.404449 -5.575248 -9.182922 12.504376 -8.241137 -10.829499 -3.668666 -11.244163 12.713930 -3.885944 -19.814549 -9.447768 -10.782677 21.433807 -22.267451 -20.739805 5.194431 -2.780774 12.101519 16.357096 -6.389981 -7.404697 26.527914 1.909406 -8.117387 -20.165934 18.016325 -18.176772 -17.976394 2.691812 13.645142 
-1.208961 0.234108 0.991146 90.491800 -8.224769 87.074886 -1.439043 2.832850 -9.322767 -6.215518 -4.945896 22.861652 2.084787 19.119388 -15.757075 0.000000 -0.000000 0.000000 -8.709303 -3.296648 -8.906505 3.428774 8.722084 21.480231 1.941279 -11.071313 -15.235449 0.000000 -0.000000 0.000000 9.429981 1.996234 15.390034 7.795579 -0.999186 3.409406 2.614663 1.533437 2.081802 -5.487693 -8.964301 11.844649 -7.426506 -9.806529 -3.819162 -11.182899 12.348904 -4.440339 -20.386397 -8.700489 -10.347602 21.405451 -22.138821 -20.824034 5.476536 -2.607999 11.805031 14.995770 -6.933348 -8.082897 25.583887 1.058374 -8.165577 -19.986745 18.502588 -17.302799 -17.904873 2.866788 13.457875 
-1.195296 0.231105 0.989702 90.910793 -7.812541 86.591033 -0.880180 2.282292 -10.829973 -6.109673 -5.361203 20.861065 1.746195 19.128801 -15.350398 0.000000 -0.000000 0.000000 -7.753597 -3.256669 -7.742106 3.268525 9.196667 22.020334 1.415368 -12.175758 -15.974923 0.000000 -0.000000 0.000000 8.777336 1.874572 15.571527 6.735529 -1.752914 3.258230 2.243669 1.094165 2.660822 -5.409594 -8.884825 11.270028 -6.344422 -8.431684 -4.010326 -11.308269 11.651838 -4.981686 -20.927890 -8.028403 -9.897131 21.381035 -22.364902 -21.078309 5.927535 -2.449731 11.902529 13.127749 -7.687944 -8.786996 24.137114 -0.220695 -8.403770 -19.524562 19.265567 -16.294333 -17.687952 3.117209 13.233404 
-1.187448 0.229155 0.989033 91.016312 -7.509960 86.440251 -0.481270 2.066464 -11.779366 -6.049444 -5.500115 19.864411 1.512158 19.150007 -14.939988 0.000000 -0.000000 0.000000 -7.203174 -3.240428 -7.065338 3.267088 9.509815 22.062313 1.188411 -12.632996 -16.359945 0.000000 -0.000000 0.000000 8.281194 1.930420 15.619614 6.127701 -2.095927 3.070759 2.079249 0.860035 2.907810 -5.322508 -8.892125 11.095699 -5.686597 -7.491061 -4.137155 -11.427642 11.314324 -5.276582 -21.224590 -7.762376 -9.620408 21.457370 -22.747893 -21.199854 6.099973 -2.336907 11.917974 12.008825 -8.220816 -9.173982 23.229646 -0.801086 -8.630719 -19.272277 19.619303 -15.660991 -17.655551 3.147893 13.263289 
